<?xml version="1.0" encoding="UTF-8" standalone="no"?>
<!-- Created with Inkscape (http://www.inkscape.org/) -->

<svg
   xmlns:dc="http://purl.org/dc/elements/1.1/"
   xmlns:cc="http://creativecommons.org/ns#"
   xmlns:rdf="http://www.w3.org/1999/02/22-rdf-syntax-ns#"
   xmlns:svg="http://www.w3.org/2000/svg"
   xmlns="http://www.w3.org/2000/svg"
   version="1.1"
   width="9.9252319mm"
   height="8.9981756mm"
   viewBox="0 0 35.168144 31.883299"
   id="svg4223">
  <defs
     id="defs4225" />
  <metadata
     id="metadata4228">
    <rdf:RDF>
      <cc:Work
         rdf:about="">
        <dc:format>image/svg+xml</dc:format>
        <dc:type
           rdf:resource="http://purl.org/dc/dcmitype/StillImage" />
        <dc:title></dc:title>
      </cc:Work>
    </rdf:RDF>
  </metadata>
  <g
     transform="translate(-359.55983,-378.59579)"
     id="layer1">
    <g
       transform="translate(-981.7194,1152.8028)"
       id="g4204">
      <g
         transform="translate(-17.751772,12.401563)"
         id="g3032">
        <g
           id="g3028">
          <g
             transform="translate(0.08704982,-31.895616)"
             id="g3082">
            <path
               d="m 1359.0272,-735.25236 c 1.7618,-0.0809 3.4529,-1.10283 4.3438,-2.625 4.0899,-7.08467 8.1602,-14.19661 12.25,-21.28125 0.9247,-1.60528 0.9244,-3.70302 -8e-4,-5.308 -0.9253,-1.60498 -2.7404,-2.65652 -4.593,-2.66075 l -24.5312,0 c -1.8578,-0.007 -3.6838,1.04047 -4.6164,2.64723 -0.9325,1.60676 -0.9359,3.71174 -0.01,5.32152 4.0898,7.08467 8.1915,14.19664 12.2812,21.28125 0.9798,1.67586 2.9366,2.72952 4.875,2.625 z"
               id="path3080"
               style="font-size:medium;font-style:normal;font-variant:normal;font-weight:normal;font-stretch:normal;text-indent:0;text-align:start;text-decoration:none;line-height:normal;letter-spacing:normal;word-spacing:normal;text-transform:none;direction:ltr;block-progression:tb;writing-mode:lr-tb;text-anchor:start;baseline-shift:baseline;opacity:0.49000005;color:#000000;fill:#000000;fill-opacity:1;fill-rule:evenodd;stroke:none;stroke-width:10.62992096;marker:none;visibility:visible;display:inline;overflow:visible;enable-background:accumulate;font-family:Sans;-inkscape-font-specification:Sans" />
          </g>
        </g>
      </g>
    </g>
  </g>
</svg>
