<?xml version="1.0" encoding="UTF-8" standalone="no"?>
<!-- Created with Inkscape (http://www.inkscape.org/) -->

<svg
   xmlns:dc="http://purl.org/dc/elements/1.1/"
   xmlns:cc="http://creativecommons.org/ns#"
   xmlns:rdf="http://www.w3.org/1999/02/22-rdf-syntax-ns#"
   xmlns:svg="http://www.w3.org/2000/svg"
   xmlns="http://www.w3.org/2000/svg"
   version="1.1"
   width="1240.1575"
   height="885.82678"
   id="svg2">
  <defs
     id="defs4" />
  <metadata
     id="metadata7">
    <rdf:RDF>
      <cc:Work
         rdf:about="">
        <dc:format>image/svg+xml</dc:format>
        <dc:type
           rdf:resource="http://purl.org/dc/dcmitype/StillImage" />
        <dc:title></dc:title>
      </cc:Work>
    </rdf:RDF>
  </metadata>
  <g
     transform="translate(1574.2858,-115.21931)"
     id="layer1">
    <path
       d="m 35.4375,35.4375 0,124 375.1875,0 c 285.26993,0 8.4191,467.05589 -375.1875,494.75 l 0,196.21875 1169.2813,0 0,-124.03125 -375.18755,0 c -285.26993,0 -8.41913,-467.05589 375.18755,-494.75 l 0,-196.1875 -1169.2813,0 z m 70.875,62 c 4.8981,0 8.84375,3.97684 8.84375,8.875 0,4.89815 -3.94565,8.84375 -8.84375,8.84375 -4.8981,0 -8.875,-3.9456 -8.875,-8.84375 0,-4.89816 3.9769,-8.875 8.875,-8.875 z m 1027.5313,0 c 4.898,0 8.875,3.97684 8.875,8.875 0,4.89815 -3.977,8.84375 -8.875,8.84375 -4.8983,0 -8.8438,-3.9456 -8.8438,-8.84375 0,-4.89816 3.9455,-8.875 8.8438,-8.875 z m -1027.5313,673.25 c 4.8981,0 8.84375,3.95639 8.84375,8.84375 0,4.88737 -3.94565,8.84375 -8.84375,8.84375 -4.8981,0 -8.875,-3.95638 -8.875,-8.84375 0,-4.88736 3.9769,-8.84375 8.875,-8.84375 z m 1027.5313,0 c 4.898,0 8.875,3.95639 8.875,8.84375 0,4.88737 -3.977,8.84375 -8.875,8.84375 -4.8983,0 -8.8438,-3.95638 -8.8438,-8.84375 0,-4.88736 3.9455,-8.84375 8.8438,-8.84375 z"
       transform="translate(-1574.2858,115.21931)"
       id="path3003"
       style="opacity:0.3;fill:#000000;stroke:none" />
  </g>
</svg>
