<?xml version="1.0" encoding="UTF-8" standalone="no"?>
<!-- Created with Inkscape (http://www.inkscape.org/) -->

<svg
   xmlns:dc="http://purl.org/dc/elements/1.1/"
   xmlns:cc="http://creativecommons.org/ns#"
   xmlns:rdf="http://www.w3.org/1999/02/22-rdf-syntax-ns#"
   xmlns:svg="http://www.w3.org/2000/svg"
   xmlns="http://www.w3.org/2000/svg"
   version="1.1"
   width="1240.1575"
   height="885.82678"
   id="svg2">
  <defs
     id="defs4" />
  <metadata
     id="metadata7">
    <rdf:RDF>
      <cc:Work
         rdf:about="">
        <dc:format>image/svg+xml</dc:format>
        <dc:type
           rdf:resource="http://purl.org/dc/dcmitype/StillImage" />
        <dc:title></dc:title>
      </cc:Work>
    </rdf:RDF>
  </metadata>
  <path
     d="m 89.71875,53.15625 c -20.263144,0 -36.5625,16.560301 -36.5625,37.125 l 0,40.09375 c 0,43.48576 115.62301,29.0625 437.46875,29.0625 280.85965,0 -209.87085,532.65625 -411.625,532.65625 -25.890202,0 -25.84375,30.65613 -25.84375,45.1875 l 0,58.28125 c 0,20.56469 16.299356,37.125 36.5625,37.125 l 1060.71875,0 c 20.2631,0 36.5625,-16.5603 36.5625,-37.125 l 0,-40.09375 c 0,-43.48576 -115.623,-29.0625 -437.46875,-29.0625 -280.85965,0 209.8711,-532.65625 411.62495,-532.65625 25.8022,0 25.8438,-30.65613 25.8438,-45.1875 l 0,-58.28125 c 0,-20.564699 -16.2994,-37.125 -36.5625,-37.125 z m 16.59375,42.5 c 5.87074,0 10.625,4.78551 10.625,10.65625 0,5.87074 -4.75426,10.625 -10.625,10.625 -5.87074,0 -10.65625,-4.75426 -10.65625,-10.625 0,-5.87074 4.78551,-10.65625 10.65625,-10.65625 z m 1027.5313,0 c 5.8706,0 10.6562,4.78551 10.6562,10.65625 0,5.87074 -4.7856,10.625 -10.6562,10.625 -5.8709,0 -10.625,-4.75426 -10.625,-10.625 0,-5.87074 4.7541,-10.65625 10.625,-10.65625 z m -1027.5313,673.25 c 5.87074,0 10.625,4.75426 10.625,10.625 0,5.87074 -4.75426,10.625 -10.625,10.625 -5.87074,0 -10.65625,-4.75426 -10.65625,-10.625 0,-5.87074 4.78551,-10.625 10.65625,-10.625 z m 1027.5313,0 c 5.8707,0 10.6562,4.75426 10.6562,10.625 0,5.87074 -4.7855,10.625 -10.6562,10.625 -5.8708,0 -10.625,-4.75426 -10.625,-10.625 0,-5.87074 4.7542,-10.625 10.625,-10.625 z"
     id="path3003"
     style="opacity:0.3;fill:#000000;stroke:none" />
</svg>
