  0
SECTION
  2
HEADER
  9
$ACADVER
  1
AC1014
  9
$HANDSEED
  5
FFFF
  9
$MEASUREMENT
 70
     1
  0
ENDSEC
  0
SECTION
  2
TABLES
  0
TABLE
  2
VPORT
  5
8
330
0
100
AcDbSymbolTable
 70
     4
  0
VPORT
  5
2E
330
8
100
AcDbSymbolTableRecord
100
AcDbViewportTableRecord
  2
*ACTIVE
 70
     0
 10
0.0
 20
0.0
 11
1.0
 21
1.0
 12
210.0
 22
148.5
 13
0.0
 23
0.0
 14
10.0
 24
10.0
 15
10.0
 25
10.0
 16
0.0
 26
0.0
 36
1.0
 17
0.0
 27
0.0
 37
0.0
 40
341.0
 41
1.24
 42
50.0
 43
0.0
 44
0.0
 50
0.0
 51
0.0
 71
     0
 72
   100
 73
     1
 74
     3
 75
     0
 76
     0
 77
     0
 78
     0
  0
ENDTAB
  0
TABLE
  2
LTYPE
  5
5
330
0
100
AcDbSymbolTable
 70
     1
  0
LTYPE
  5
14
330
5
100
AcDbSymbolTableRecord
100
AcDbLinetypeTableRecord
  2
BYBLOCK
 70
     0
  3

 72
    65
 73
     0
 40
0.0
  0
LTYPE
  5
15
330
5
100
AcDbSymbolTableRecord
100
AcDbLinetypeTableRecord
  2
BYLAYER
 70
     0
  3

 72
    65
 73
     0
 40
0.0
  0
LTYPE
  5
16
330
5
100
AcDbSymbolTableRecord
100
AcDbLinetypeTableRecord
  2
CONTINUOUS
 70
     0
  3
Solid line
 72
    65
 73
     0
 40
0.0
  0
ENDTAB
  0
TABLE
  2
LAYER
  5
2
100
AcDbSymbolTable
 70
2
  0
LAYER
  5
50
100
AcDbSymbolTableRecord
100
AcDbLayerTableRecord
  2
0
 70
0
  6
CONTINUOUS
  0
LAYER
  5
51
100
AcDbSymbolTableRecord
100
AcDbLayerTableRecord
  2
Layer_1
 70
0
  6
CONTINUOUS
  0
ENDTAB
  0
TABLE
  2
STYLE
  5
3
330
0
100
AcDbSymbolTable
 70
     1
  0
STYLE
  5
11
330
3
100
AcDbSymbolTableRecord
100
AcDbTextStyleTableRecord
  2
STANDARD
 70
     0
 40
0.0
 41
1.0
 50
0.0
 71
     0
 42
2.5
  3
txt
  4

  0
ENDTAB
  0
TABLE
  2
VIEW
  5
6
330
0
100
AcDbSymbolTable
 70
     0
  0
ENDTAB
  0
TABLE
  2
UCS
  5
7
330
0
100
AcDbSymbolTable
 70
     0
  0
ENDTAB
  0
TABLE
  2
APPID
  5
9
330
0
100
AcDbSymbolTable
 70
     2
  0
APPID
  5
12
330
9
100
AcDbSymbolTableRecord
100
AcDbRegAppTableRecord
  2
ACAD
 70
     0
  0
ENDTAB
  0
TABLE
  2
DIMSTYLE
  5
A
330
0
100
AcDbSymbolTable
 70
     1
  0
DIMSTYLE
105
27
330
A
100
AcDbSymbolTableRecord
100
AcDbDimStyleTableRecord
  2
ISO-25
 70
     0
  3

  4

  5

  6

  7

 40
1.0
 41
2.5
 42
0.625
 43
3.75
 44
1.25
 45
0.0
 46
0.0
 47
0.0
 48
0.0
140
2.5
141
2.5
142
0.0
143
0.03937007874016
144
1.0
145
0.0
146
1.0
147
0.625
 71
     0
 72
     0
 73
     0
 74
     0
 75
     0
 76
     0
 77
     1
 78
     8
170
     0
171
     3
172
     1
173
     0
174
     0
175
     0
176
     0
177
     0
178
     0
270
     2
271
     2
272
     2
273
     2
274
     3
340
11
275
     0
280
     0
281
     0
282
     0
283
     0
284
     8
285
     0
286
     0
287
     3
288
     0
  0
ENDTAB
  0
TABLE
  2
BLOCK_RECORD
  5
1
330
0
100
AcDbSymbolTable
 70
     1
  0
BLOCK_RECORD
  5
1F
330
1
100
AcDbSymbolTableRecord
100
AcDbBlockTableRecord
  2
*MODEL_SPACE
  0
BLOCK_RECORD
  5
1B
330
1
100
AcDbSymbolTableRecord
100
AcDbBlockTableRecord
  2
*PAPER_SPACE
  0
ENDTAB
  0
ENDSEC
  0
SECTION
  2
BLOCKS
  0
BLOCK
  5
20
330
1F
100
AcDbEntity
  8
0
100
AcDbBlockBegin
  2
*MODEL_SPACE
 70
     0
 10
0.0
 20
0.0
 30
0.0
  3
*MODEL_SPACE
  1

  0
ENDBLK
  5
21
330
1F
100
AcDbEntity
  8
0
100
AcDbBlockEnd
  0
BLOCK
  5
1C
330
1B
100
AcDbEntity
 67
     1
  8
0
100
AcDbBlockBegin
  2
*PAPER_SPACE
  1

  0
ENDBLK
  5
1D
330
1B
100
AcDbEntity
 67
     1
  8
0
100
AcDbBlockEnd
  0
ENDSEC
  0
SECTION
  2
ENTITIES
  0
LWPOLYLINE
  5
100
100
AcDbEntity
  8
Layer_1
 62
7
100
AcDbPolyline
 90
5
 70
1
 10
0.900357
 20
339.686231
 30
0.0
 10
324.438368
 20
339.686231
 30
0.0
 10
324.438368
 20
0.319541
 30
0.0
 10
0.900357
 20
0.319541
 30
0.0
 10
0.900357
 20
339.686231
 30
0.0
  0
SPLINE
  5
101
100
AcDbEntity
  8
Layer_1
 62
7
100
AcDbSpline
 70
8
 71
3
 72
8
 73
4
 74
0
 40
0
 40
0
 40
0
 40
0
 40
1
 40
1
 40
1
 40
1
 10
218.005365
 20
298.840988
 30
0.0
 10
218.005366
 20
298.177947
 30
0.0
 10
217.741974
 20
297.542062
 30
0.0
 10
217.273133
 20
297.073221
 30
0.0
  0
SPLINE
  5
102
100
AcDbEntity
  8
Layer_1
 62
7
100
AcDbSpline
 70
8
 71
3
 72
8
 73
4
 74
0
 40
0
 40
0
 40
0
 40
0
 40
1
 40
1
 40
1
 40
1
 10
217.273133
 20
297.073221
 30
0.0
 10
216.804292
 20
296.604380
 30
0.0
 10
216.168407
 20
296.340987
 30
0.0
 10
215.505366
 20
296.340987
 30
0.0
  0
SPLINE
  5
103
100
AcDbEntity
  8
Layer_1
 62
7
100
AcDbSpline
 70
8
 71
3
 72
8
 73
4
 74
0
 40
0
 40
0
 40
0
 40
0
 40
1
 40
1
 40
1
 40
1
 10
215.505366
 20
296.340987
 30
0.0
 10
214.842324
 20
296.340987
 30
0.0
 10
214.206439
 20
296.604380
 30
0.0
 10
213.737598
 20
297.073221
 30
0.0
  0
SPLINE
  5
104
100
AcDbEntity
  8
Layer_1
 62
7
100
AcDbSpline
 70
8
 71
3
 72
8
 73
4
 74
0
 40
0
 40
0
 40
0
 40
0
 40
1
 40
1
 40
1
 40
1
 10
213.737598
 20
297.073221
 30
0.0
 10
213.268757
 20
297.542062
 30
0.0
 10
213.005365
 20
298.177947
 30
0.0
 10
213.005365
 20
298.840988
 30
0.0
  0
SPLINE
  5
105
100
AcDbEntity
  8
Layer_1
 62
7
100
AcDbSpline
 70
8
 71
3
 72
8
 73
4
 74
0
 40
0
 40
0
 40
0
 40
0
 40
1
 40
1
 40
1
 40
1
 10
213.005365
 20
298.840988
 30
0.0
 10
213.005365
 20
299.504029
 30
0.0
 10
213.268757
 20
300.139914
 30
0.0
 10
213.737598
 20
300.608755
 30
0.0
  0
SPLINE
  5
106
100
AcDbEntity
  8
Layer_1
 62
7
100
AcDbSpline
 70
8
 71
3
 72
8
 73
4
 74
0
 40
0
 40
0
 40
0
 40
0
 40
1
 40
1
 40
1
 40
1
 10
213.737598
 20
300.608755
 30
0.0
 10
214.206439
 20
301.077596
 30
0.0
 10
214.842324
 20
301.340989
 30
0.0
 10
215.505366
 20
301.340989
 30
0.0
  0
SPLINE
  5
107
100
AcDbEntity
  8
Layer_1
 62
7
100
AcDbSpline
 70
8
 71
3
 72
8
 73
4
 74
0
 40
0
 40
0
 40
0
 40
0
 40
1
 40
1
 40
1
 40
1
 10
215.505366
 20
301.340989
 30
0.0
 10
216.168407
 20
301.340989
 30
0.0
 10
216.804292
 20
301.077596
 30
0.0
 10
217.273133
 20
300.608755
 30
0.0
  0
SPLINE
  5
108
100
AcDbEntity
  8
Layer_1
 62
7
100
AcDbSpline
 70
8
 71
3
 72
8
 73
4
 74
0
 40
0
 40
0
 40
0
 40
0
 40
1
 40
1
 40
1
 40
1
 10
217.273133
 20
300.608755
 30
0.0
 10
217.741974
 20
300.139914
 30
0.0
 10
218.005366
 20
299.504029
 30
0.0
 10
218.005365
 20
298.840988
 30
0.0
  0
LWPOLYLINE
  5
109
100
AcDbEntity
  8
Layer_1
 62
7
100
AcDbPolyline
 90
5
 70
1
 10
217.305363
 20
300.040986
 30
0.0
 10
265.305362
 20
300.040986
 30
0.0
 10
265.305362
 20
195.040984
 30
0.0
 10
217.305363
 20
195.040984
 30
0.0
 10
217.305363
 20
300.040986
 30
0.0
  0
SPLINE
  5
10a
100
AcDbEntity
  8
Layer_1
 62
7
100
AcDbSpline
 70
8
 71
3
 72
8
 73
4
 74
0
 40
0
 40
0
 40
0
 40
0
 40
1
 40
1
 40
1
 40
1
 10
269.605365
 20
298.840988
 30
0.0
 10
269.605365
 20
298.177947
 30
0.0
 10
269.341973
 20
297.542062
 30
0.0
 10
268.873132
 20
297.073220
 30
0.0
  0
SPLINE
  5
10b
100
AcDbEntity
  8
Layer_1
 62
7
100
AcDbSpline
 70
8
 71
3
 72
8
 73
4
 74
0
 40
0
 40
0
 40
0
 40
0
 40
1
 40
1
 40
1
 40
1
 10
268.873132
 20
297.073220
 30
0.0
 10
268.404291
 20
296.604379
 30
0.0
 10
267.768406
 20
296.340987
 30
0.0
 10
267.105364
 20
296.340987
 30
0.0
  0
SPLINE
  5
10c
100
AcDbEntity
  8
Layer_1
 62
7
100
AcDbSpline
 70
8
 71
3
 72
8
 73
4
 74
0
 40
0
 40
0
 40
0
 40
0
 40
1
 40
1
 40
1
 40
1
 10
267.105364
 20
296.340987
 30
0.0
 10
266.415009
 20
296.340988
 30
0.0
 10
265.790009
 20
296.620810
 30
0.0
 10
265.337598
 20
297.073221
 30
0.0
  0
SPLINE
  5
10d
100
AcDbEntity
  8
Layer_1
 62
7
100
AcDbSpline
 70
8
 71
3
 72
8
 73
4
 74
0
 40
0
 40
0
 40
0
 40
0
 40
1
 40
1
 40
1
 40
1
 10
265.337598
 20
297.073221
 30
0.0
 10
264.885188
 20
297.525633
 30
0.0
 10
264.605366
 20
298.150632
 30
0.0
 10
264.605366
 20
298.840988
 30
0.0
  0
SPLINE
  5
10e
100
AcDbEntity
  8
Layer_1
 62
7
100
AcDbSpline
 70
8
 71
3
 72
8
 73
4
 74
0
 40
0
 40
0
 40
0
 40
0
 40
1
 40
1
 40
1
 40
1
 10
264.605366
 20
298.840988
 30
0.0
 10
264.605366
 20
299.531344
 30
0.0
 10
264.885188
 20
300.156344
 30
0.0
 10
265.337598
 20
300.608755
 30
0.0
  0
SPLINE
  5
10f
100
AcDbEntity
  8
Layer_1
 62
7
100
AcDbSpline
 70
8
 71
3
 72
8
 73
4
 74
0
 40
0
 40
0
 40
0
 40
0
 40
1
 40
1
 40
1
 40
1
 10
265.337598
 20
300.608755
 30
0.0
 10
265.790009
 20
301.061166
 30
0.0
 10
266.415009
 20
301.340988
 30
0.0
 10
267.105364
 20
301.340989
 30
0.0
  0
SPLINE
  5
110
100
AcDbEntity
  8
Layer_1
 62
7
100
AcDbSpline
 70
8
 71
3
 72
8
 73
4
 74
0
 40
0
 40
0
 40
0
 40
0
 40
1
 40
1
 40
1
 40
1
 10
267.105364
 20
301.340989
 30
0.0
 10
267.768406
 20
301.340989
 30
0.0
 10
268.404291
 20
301.077597
 30
0.0
 10
268.873132
 20
300.608756
 30
0.0
  0
SPLINE
  5
111
100
AcDbEntity
  8
Layer_1
 62
7
100
AcDbSpline
 70
8
 71
3
 72
8
 73
4
 74
0
 40
0
 40
0
 40
0
 40
0
 40
1
 40
1
 40
1
 40
1
 10
268.873132
 20
300.608756
 30
0.0
 10
269.341973
 20
300.139915
 30
0.0
 10
269.605365
 20
299.504029
 30
0.0
 10
269.605365
 20
298.840988
 30
0.0
  0
LWPOLYLINE
  5
112
100
AcDbEntity
  8
Layer_1
 62
7
100
AcDbPolyline
 90
2
 70
0
 10
218.005365
 20
298.840988
 30
0.0
 10
218.005365
 20
298.840988
 30
0.0
  0
SPLINE
  5
113
100
AcDbEntity
  8
Layer_1
 62
7
100
AcDbSpline
 70
8
 71
3
 72
8
 73
4
 74
0
 40
0
 40
0
 40
0
 40
0
 40
1
 40
1
 40
1
 40
1
 10
218.005365
 20
196.240982
 30
0.0
 10
218.005366
 20
195.577940
 30
0.0
 10
217.741974
 20
194.942055
 30
0.0
 10
217.273133
 20
194.473214
 30
0.0
  0
SPLINE
  5
114
100
AcDbEntity
  8
Layer_1
 62
7
100
AcDbSpline
 70
8
 71
3
 72
8
 73
4
 74
0
 40
0
 40
0
 40
0
 40
0
 40
1
 40
1
 40
1
 40
1
 10
217.273133
 20
194.473214
 30
0.0
 10
216.804292
 20
194.004373
 30
0.0
 10
216.168407
 20
193.740981
 30
0.0
 10
215.505366
 20
193.740981
 30
0.0
  0
SPLINE
  5
115
100
AcDbEntity
  8
Layer_1
 62
7
100
AcDbSpline
 70
8
 71
3
 72
8
 73
4
 74
0
 40
0
 40
0
 40
0
 40
0
 40
1
 40
1
 40
1
 40
1
 10
215.505366
 20
193.740981
 30
0.0
 10
214.842324
 20
193.740981
 30
0.0
 10
214.206439
 20
194.004373
 30
0.0
 10
213.737598
 20
194.473214
 30
0.0
  0
SPLINE
  5
116
100
AcDbEntity
  8
Layer_1
 62
7
100
AcDbSpline
 70
8
 71
3
 72
8
 73
4
 74
0
 40
0
 40
0
 40
0
 40
0
 40
1
 40
1
 40
1
 40
1
 10
213.737598
 20
194.473214
 30
0.0
 10
213.268757
 20
194.942055
 30
0.0
 10
213.005365
 20
195.577940
 30
0.0
 10
213.005365
 20
196.240982
 30
0.0
  0
SPLINE
  5
117
100
AcDbEntity
  8
Layer_1
 62
7
100
AcDbSpline
 70
8
 71
3
 72
8
 73
4
 74
0
 40
0
 40
0
 40
0
 40
0
 40
1
 40
1
 40
1
 40
1
 10
213.005365
 20
196.240982
 30
0.0
 10
213.005365
 20
196.904023
 30
0.0
 10
213.268757
 20
197.539908
 30
0.0
 10
213.737598
 20
198.008749
 30
0.0
  0
SPLINE
  5
118
100
AcDbEntity
  8
Layer_1
 62
7
100
AcDbSpline
 70
8
 71
3
 72
8
 73
4
 74
0
 40
0
 40
0
 40
0
 40
0
 40
1
 40
1
 40
1
 40
1
 10
213.737598
 20
198.008749
 30
0.0
 10
214.206439
 20
198.477590
 30
0.0
 10
214.842324
 20
198.740982
 30
0.0
 10
215.505366
 20
198.740982
 30
0.0
  0
SPLINE
  5
119
100
AcDbEntity
  8
Layer_1
 62
7
100
AcDbSpline
 70
8
 71
3
 72
8
 73
4
 74
0
 40
0
 40
0
 40
0
 40
0
 40
1
 40
1
 40
1
 40
1
 10
215.505366
 20
198.740982
 30
0.0
 10
216.168407
 20
198.740982
 30
0.0
 10
216.804292
 20
198.477590
 30
0.0
 10
217.273133
 20
198.008749
 30
0.0
  0
SPLINE
  5
11a
100
AcDbEntity
  8
Layer_1
 62
7
100
AcDbSpline
 70
8
 71
3
 72
8
 73
4
 74
0
 40
0
 40
0
 40
0
 40
0
 40
1
 40
1
 40
1
 40
1
 10
217.273133
 20
198.008749
 30
0.0
 10
217.741974
 20
197.539908
 30
0.0
 10
218.005366
 20
196.904023
 30
0.0
 10
218.005365
 20
196.240982
 30
0.0
  0
LWPOLYLINE
  5
11b
100
AcDbEntity
  8
Layer_1
 62
7
100
AcDbPolyline
 90
2
 70
0
 10
269.605365
 20
298.840988
 30
0.0
 10
269.605365
 20
298.840988
 30
0.0
  0
SPLINE
  5
11c
100
AcDbEntity
  8
Layer_1
 62
7
100
AcDbSpline
 70
8
 71
3
 72
8
 73
4
 74
0
 40
0
 40
0
 40
0
 40
0
 40
1
 40
1
 40
1
 40
1
 10
269.605365
 20
196.240982
 30
0.0
 10
269.605365
 20
195.577940
 30
0.0
 10
269.341973
 20
194.942055
 30
0.0
 10
268.873132
 20
194.473214
 30
0.0
  0
SPLINE
  5
11d
100
AcDbEntity
  8
Layer_1
 62
7
100
AcDbSpline
 70
8
 71
3
 72
8
 73
4
 74
0
 40
0
 40
0
 40
0
 40
0
 40
1
 40
1
 40
1
 40
1
 10
268.873132
 20
194.473214
 30
0.0
 10
268.404291
 20
194.004373
 30
0.0
 10
267.768406
 20
193.740981
 30
0.0
 10
267.105364
 20
193.740981
 30
0.0
  0
SPLINE
  5
11e
100
AcDbEntity
  8
Layer_1
 62
7
100
AcDbSpline
 70
8
 71
3
 72
8
 73
4
 74
0
 40
0
 40
0
 40
0
 40
0
 40
1
 40
1
 40
1
 40
1
 10
267.105364
 20
193.740981
 30
0.0
 10
265.724653
 20
193.740982
 30
0.0
 10
264.605366
 20
194.860270
 30
0.0
 10
264.605366
 20
196.240982
 30
0.0
  0
SPLINE
  5
11f
100
AcDbEntity
  8
Layer_1
 62
7
100
AcDbSpline
 70
8
 71
3
 72
8
 73
4
 74
0
 40
0
 40
0
 40
0
 40
0
 40
1
 40
1
 40
1
 40
1
 10
264.605366
 20
196.240982
 30
0.0
 10
264.605366
 20
197.621693
 30
0.0
 10
265.724653
 20
198.740981
 30
0.0
 10
267.105364
 20
198.740982
 30
0.0
  0
SPLINE
  5
120
100
AcDbEntity
  8
Layer_1
 62
7
100
AcDbSpline
 70
8
 71
3
 72
8
 73
4
 74
0
 40
0
 40
0
 40
0
 40
0
 40
1
 40
1
 40
1
 40
1
 10
267.105364
 20
198.740982
 30
0.0
 10
267.768406
 20
198.740982
 30
0.0
 10
268.404291
 20
198.477590
 30
0.0
 10
268.873132
 20
198.008749
 30
0.0
  0
SPLINE
  5
121
100
AcDbEntity
  8
Layer_1
 62
7
100
AcDbSpline
 70
8
 71
3
 72
8
 73
4
 74
0
 40
0
 40
0
 40
0
 40
0
 40
1
 40
1
 40
1
 40
1
 10
268.873132
 20
198.008749
 30
0.0
 10
269.341973
 20
197.539908
 30
0.0
 10
269.605365
 20
196.904023
 30
0.0
 10
269.605365
 20
196.240982
 30
0.0
  0
LWPOLYLINE
  5
122
100
AcDbEntity
  8
Layer_1
 62
7
100
AcDbPolyline
 90
2
 70
0
 10
218.005365
 20
196.240982
 30
0.0
 10
218.005365
 20
196.240982
 30
0.0
  0
LWPOLYLINE
  5
123
100
AcDbEntity
  8
Layer_1
 62
7
100
AcDbPolyline
 90
2
 70
1
 10
269.605365
 20
196.240982
 30
0.0
 10
269.605365
 20
196.240982
 30
0.0
  0
LWPOLYLINE
  5
124
100
AcDbEntity
  8
Layer_1
 62
7
100
AcDbPolyline
 90
5
 70
1
 10
50.771112
 20
300.106941
 30
0.0
 10
153.771112
 20
300.106941
 30
0.0
 10
153.771112
 20
243.106939
 30
0.0
 10
50.771112
 20
243.106939
 30
0.0
 10
50.771112
 20
300.106941
 30
0.0
  0
LWPOLYLINE
  5
125
100
AcDbEntity
  8
Layer_1
 62
7
100
AcDbPolyline
 90
5
 70
1
 10
50.771112
 20
291.606944
 30
0.0
 10
40.771106
 20
291.606944
 30
0.0
 10
40.771106
 20
251.606942
 30
0.0
 10
50.771112
 20
251.606942
 30
0.0
 10
50.771112
 20
291.606944
 30
0.0
  0
LWPOLYLINE
  5
126
100
AcDbEntity
  8
Layer_1
 62
7
100
AcDbPolyline
 90
5
 70
1
 10
163.771114
 20
291.606944
 30
0.0
 10
153.771109
 20
291.606944
 30
0.0
 10
153.771109
 20
251.606942
 30
0.0
 10
163.771114
 20
251.606942
 30
0.0
 10
163.771114
 20
291.606944
 30
0.0
  0
ENDSEC
  0
SECTION
  2
OBJECTS
  0
DICTIONARY
  5
C
330
0
100
AcDbDictionary
  3
ACAD_GROUP
350
D
  3
ACAD_MLINESTYLE
350
17
  0
DICTIONARY
  5
D
330
C
100
AcDbDictionary
  0
DICTIONARY
  5
1A
330
C
100
AcDbDictionary
  0
DICTIONARY
  5
17
330
C
100
AcDbDictionary
  3
STANDARD
350
18
  0
DICTIONARY
  5
19
330
C
100
AcDbDictionary
  0
ENDSEC
  0
EOF
