<?xml version="1.0" encoding="UTF-8" standalone="no"?>
<!-- Created with Inkscape (http://www.inkscape.org/) -->

<svg
   xmlns:dc="http://purl.org/dc/elements/1.1/"
   xmlns:cc="http://creativecommons.org/ns#"
   xmlns:rdf="http://www.w3.org/1999/02/22-rdf-syntax-ns#"
   xmlns:svg="http://www.w3.org/2000/svg"
   xmlns="http://www.w3.org/2000/svg"
   xmlns:sodipodi="http://sodipodi.sourceforge.net/DTD/sodipodi-0.dtd"
   xmlns:inkscape="http://www.inkscape.org/namespaces/inkscape"
   width="199.99854mm"
   height="514.64984mm"
   id="svg3054"
   version="1.1"
   inkscape:version="0.48.3.1 r9886"
   sodipodi:docname="new-side-2015-09-23.svg">
  <defs
     id="defs3056" />
  <sodipodi:namedview
     id="base"
     pagecolor="#ffffff"
     bordercolor="#666666"
     borderopacity="1.0"
     inkscape:pageopacity="0.0"
     inkscape:pageshadow="2"
     inkscape:zoom="0.25"
     inkscape:cx="-113.81327"
     inkscape:cy="283.46298"
     inkscape:document-units="mm"
     inkscape:current-layer="layer1"
     showgrid="true"
     fit-margin-top="0"
     fit-margin-left="0"
     fit-margin-right="0"
     fit-margin-bottom="0"
     units="mm"
     inkscape:snap-bbox="true"
     inkscape:bbox-nodes="true"
     inkscape:snap-grids="false"
     inkscape:snap-bbox-edge-midpoints="true"
     inkscape:bbox-paths="true"
     inkscape:object-nodes="true"
     inkscape:window-width="1366"
     inkscape:window-height="709"
     inkscape:window-x="0"
     inkscape:window-y="27"
     inkscape:window-maximized="1"
     inkscape:snap-object-midpoints="true"
     inkscape:snap-bbox-midpoints="true"
     inkscape:snap-center="true"
     showguides="true"
     inkscape:guide-bbox="true"
     inkscape:snap-others="false"
     inkscape:snap-nodes="true"
     inkscape:snap-to-guides="true"
     inkscape:snap-smooth-nodes="true"
     inkscape:snap-intersection-paths="true"
     inkscape:object-paths="true"
     inkscape:snap-midpoints="true"
     inkscape:snap-page="true">
    <inkscape:grid
       type="xygrid"
       id="grid3064"
       units="mm"
       empspacing="5"
       visible="true"
       enabled="true"
       snapvisiblegridlinesonly="true"
       originx="0mm"
       originy="0mm"
       spacingx="1mm"
       spacingy="1mm" />
    <sodipodi:guide
       position="88.582678,1736.2206"
       orientation="0,1"
       id="guide4143" />
    <sodipodi:guide
       position="47.480315,9.9e-05"
       orientation="1,0"
       id="guide4145" />
    <sodipodi:guide
       position="17.71205,1734.9783"
       orientation="1,0"
       id="guide4147" />
    <sodipodi:guide
       position="690.94488,9.9e-05"
       orientation="1,0"
       id="guide4149" />
    <sodipodi:guide
       position="661.1811,9.9e-05"
       orientation="1,0"
       id="guide4151" />
    <sodipodi:guide
       position="708.66142,17.716634"
       orientation="0,1"
       id="guide4153" />
    <sodipodi:guide
       position="0,76.535433"
       orientation="0,1"
       id="guide4155" />
    <sodipodi:guide
       position="151.22001,1798.8579"
       orientation="0.70710678,0.70710678"
       id="guide4158"
       inkscape:label=""
       inkscape:color="rgb(0,0,255)" />
    <sodipodi:guide
       position="620.07874,1204.7245"
       orientation="0,1"
       id="guide4160" />
    <sodipodi:guide
       position="88.582662,1736.2206"
       orientation="-0.70710678,0.70710678"
       id="guide4162"
       inkscape:label=""
       inkscape:color="rgb(0,0,255)" />
    <sodipodi:guide
       position="620.07874,1204.7245"
       orientation="0.70710678,0.70710678"
       id="guide4164"
       inkscape:label=""
       inkscape:color="rgb(0,0,255)" />
    <sodipodi:guide
       position="620.07873,1204.7245"
       orientation="-0.70710678,0.70710678"
       id="guide4166"
       inkscape:label=""
       inkscape:color="rgb(0,0,255)" />
    <sodipodi:guide
       position="138.69257,1786.3299"
       orientation="0.70710678,0.70710678"
       id="guide4172"
       inkscape:label=""
       inkscape:color="rgb(0,0,255)" />
    <sodipodi:guide
       position="131.17609,1778.814"
       orientation="0.70710678,0.70710678"
       id="guide4174"
       inkscape:label=""
       inkscape:color="rgb(0,0,255)" />
    <sodipodi:guide
       position="116.14309,1763.781"
       orientation="0.70710678,0.70710678"
       id="guide3356"
       inkscape:label=""
       inkscape:color="rgb(0,0,255)" />
    <sodipodi:guide
       position="119.90008,1767.5405"
       orientation="0,1"
       id="guide3358" />
    <sodipodi:guide
       position="53.505714,1771.2975"
       orientation="-0.70710678,0.70710678"
       id="guide3362"
       inkscape:label=""
       inkscape:color="rgb(0,0,255)" />
  </sodipodi:namedview>
  <metadata
     id="metadata3059">
    <rdf:RDF>
      <cc:Work
         rdf:about="">
        <dc:format>image/svg+xml</dc:format>
        <dc:type
           rdf:resource="http://purl.org/dc/dcmitype/StillImage" />
        <dc:title></dc:title>
      </cc:Work>
    </rdf:RDF>
  </metadata>
  <g
     inkscape:label="Layer 1"
     inkscape:groupmode="layer"
     id="layer1"
     transform="translate(-106.3037,1072.3834)">
    <path
       style="fill:#445500;fill-rule:evenodd;stroke:none;stroke-width:1px;stroke-linecap:butt;stroke-linejoin:miter;stroke-opacity:1"
       d="M 88.582031,-1.2402344 C 39.659674,-1.239876 0,38.41944 0,87.341797 l 0,1736.220703 708.65625,0 0.006,-1204.72461 c -0.0229,-23.432 -10.27506,-38.92454 -26.82695,-55.51049 L 151.22188,24.706305 C 134.62618,8.0971079 112.06143,-1.2198423 88.582031,-1.2402344 Z"
       transform="translate(106.3037,-1072.3834)"
       id="path4267"
       inkscape:connector-curvature="0"
       sodipodi:nodetypes="cscccccc" />
    <path
       inkscape:connector-curvature="0"
       id="path4168"
       d="m 106.30366,-985.04154 a 88.58268,88.58268 0 0 0 88.58266,88.58268 88.58268,88.58268 0 0 0 88.58269,-88.58268 88.58268,88.58268 0 0 0 -88.58269,-88.58266 88.58268,88.58268 0 0 0 -88.58266,88.58266 z"
       style="opacity:0.5;fill:#cccccc;fill-opacity:1;stroke:none" />
    <path
       inkscape:connector-curvature="0"
       id="path4176"
       d="m 124.02022,-985.04172 a 70.866143,70.866143 0 0 0 70.86613,70.8662 70.866143,70.866143 0 0 0 70.86615,-70.8662 70.866143,70.866143 0 0 0 -70.86615,-70.86588 70.866143,70.866143 0 0 0 -70.86613,70.86588 z"
       style="opacity:0.5;fill:#cccccc;fill-opacity:1;stroke:none" />
    <path
       style="opacity:0.5;fill:#cccccc;fill-opacity:1;stroke:none"
       d="m 637.79977,-453.54548 a 88.58268,88.58268 0 0 0 88.58266,88.58268 88.58268,88.58268 0 0 0 88.58269,-88.58268 88.58268,88.58268 0 0 0 -88.58269,-88.58266 88.58268,88.58268 0 0 0 -88.58266,88.58266 z"
       id="path4170"
       inkscape:connector-curvature="0" />
    <path
       style="opacity:0.5;fill:#cccccc;fill-opacity:1;stroke:none"
       d="m 655.5163,-453.54563 a 70.866143,70.866143 0 0 0 70.86613,70.8662 70.866143,70.866143 0 0 0 70.86615,-70.8662 70.866143,70.866143 0 0 0 -70.86615,-70.86588 70.866143,70.866143 0 0 0 -70.86613,70.86588 z"
       id="path4178"
       inkscape:connector-curvature="0" />
    <path
       inkscape:connector-curvature="0"
       id="path4180"
       d="m 682.0911,-453.54553 a 44.291339,44.291393 0 0 0 44.29133,44.2914 44.291339,44.291393 0 0 0 44.29135,-44.2914 44.291339,44.291393 0 0 0 -44.29135,-44.29128 44.291339,44.291393 0 0 0 -44.29133,44.29128 z"
       style="opacity:0.5;fill:#cccccc;fill-opacity:1;stroke:none" />
    <path
       style="fill:#88aa00;fill-opacity:1;fill-rule:evenodd;stroke:none"
       d="m 88.582031,16.476562 c -39.13758,5.03e-4 -70.864733,31.727655 -70.865234,70.865235 l 0,1736.220703 29.763518,-2e-4 0,-1736.220522 c 4.59e-4,-27.396154 13.705569,-49.604991 41.101723,-49.60545 5.521243,0.0053 18.274222,12.787199 27.561052,22.045078 L 647.63916,591.2775 c 9.30539,9.29402 13.54143,22.04587 13.54194,27.56038 l 0,1128.18902 -613.700785,0 0,58.8188 613.700785,0 0,17.7166 29.76412,2e-4 -3.4e-4,-1204.72457 c -0.017,-18.77899 -7.45265,-36.81333 -20.73494,-50.08855 L 138.69193,37.232266 C 125.42241,24.007942 107.3161,16.491043 88.582031,16.476562 z"
       transform="translate(106.3037,-1072.3834)"
       id="path4253"
       inkscape:connector-curvature="0"
       sodipodi:nodetypes="ccccccccccccccccccc" />
    <path
       style="opacity:0.5;fill:#cccccc;fill-opacity:1;stroke:none"
       d="m 155.90996,-985.0416 a 38.976381,38.976397 0 0 0 38.97638,38.9764 38.976381,38.976397 0 0 0 38.97638,-38.9764 38.976381,38.976397 0 0 0 -38.97638,-38.9763 38.976381,38.976397 0 0 0 -38.97638,38.9763 z"
       id="path3067"
       inkscape:connector-curvature="0" />
  </g>
</svg>
